<?xml version="1.0" encoding="UTF-8" standalone="no"?> <!DOCTYPE svg PUBLIC "-//W3C//DTD SVG 1.1//EN" "http://www.w3.org/Graphics/SVG/1.1/DTD/svg11.dtd"> <!-- Generated by graphviz version 2.40.1 (20161225.0304) --> <!-- Title: SignalFlow Pages: 1 --> <svg width="563pt" height="422pt" viewBox="0.00 0.00 562.88 422.00" xmlns="http://www.w3.org/2000/svg" xmlns:xlink="http://www.w3.org/1999/xlink"> <g id="graph0" class="graph" transform="scale(1 1) rotate(0) translate(4 418)"> <title>SignalFlow</title> <polygon fill="#ffffff" stroke="transparent" points="-4,4 -4,-418 558.8802,-418 558.8802,4 -4,4"/> <!-- BP3442HzEEGGamma --> <g id="node1" class="node"> <title>BP3442HzEEGGamma</title> <polygon fill="none" stroke="#000000" points="453.543,-414 364.3408,-414 364.3408,-378 453.543,-378 453.543,-414"/> <text text-anchor="middle" x="408.9419" y="-391.8" font-family="Times,serif" font-size="14.00" fill="#000000">BP 34&#45;42 Hz</text> </g> <!-- Gamma --> <g id="node2" class="node"> <title>Gamma</title> <path fill="#c0c0c0" stroke="#000000" d="M543.0753,-414C543.0753,-414 501.2973,-414 501.2973,-414 495.2973,-414 489.2973,-408 489.2973,-402 489.2973,-402 489.2973,-390 489.2973,-390 489.2973,-384 495.2973,-378 501.2973,-378 501.2973,-378 543.0753,-378 543.0753,-378 549.0753,-378 555.0753,-384 555.0753,-390 555.0753,-390 555.0753,-402 555.0753,-402 555.0753,-408 549.0753,-414 543.0753,-414"/> <text text-anchor="middle" x="522.1863" y="-391.8" font-family="Times,serif" font-size="14.00" fill="#000000">Output 1</text> </g> <!-- BP3442HzEEGGamma&#45;&gt;Gamma --> <g id="edge1" class="edge"> <title>BP3442HzEEGGamma&#45;&gt;Gamma</title> <path fill="none" stroke="#000000" d="M453.6991,-396C462.0453,-396 470.7516,-396 479.0479,-396"/> <polygon fill="#000000" stroke="#000000" points="479.2792,-399.5001 489.2792,-396 479.2792,-392.5001 479.2792,-399.5001"/> </g> <!-- BP2334HzEEGHiBeta --> <g id="node3" class="node"> <title>BP2334HzEEGHiBeta</title> <polygon fill="none" stroke="#000000" points="453.543,-360 364.3408,-360 364.3408,-324 453.543,-324 453.543,-360"/> <text text-anchor="middle" x="408.9419" y="-337.8" font-family="Times,serif" font-size="14.00" fill="#000000">BP 23&#45;34 Hz</text> </g> <!-- HiBeta --> <g id="node4" class="node"> <title>HiBeta</title> <path fill="#c0c0c0" stroke="#000000" d="M543.0753,-360C543.0753,-360 501.2973,-360 501.2973,-360 495.2973,-360 489.2973,-354 489.2973,-348 489.2973,-348 489.2973,-336 489.2973,-336 489.2973,-330 495.2973,-324 501.2973,-324 501.2973,-324 543.0753,-324 543.0753,-324 549.0753,-324 555.0753,-330 555.0753,-336 555.0753,-336 555.0753,-348 555.0753,-348 555.0753,-354 549.0753,-360 543.0753,-360"/> <text text-anchor="middle" x="522.1863" y="-337.8" font-family="Times,serif" font-size="14.00" fill="#000000">Output 2</text> </g> <!-- BP2334HzEEGHiBeta&#45;&gt;HiBeta --> <g id="edge2" class="edge"> <title>BP2334HzEEGHiBeta&#45;&gt;HiBeta</title> <path fill="none" stroke="#000000" d="M453.6991,-342C462.0453,-342 470.7516,-342 479.0479,-342"/> <polygon fill="#000000" stroke="#000000" points="479.2792,-345.5001 489.2792,-342 479.2792,-338.5001 479.2792,-345.5001"/> </g> <!-- BP1923HzEEGBeta2 --> <g id="node5" class="node"> <title>BP1923HzEEGBeta2</title> <polygon fill="none" stroke="#000000" points="453.543,-306 364.3408,-306 364.3408,-270 453.543,-270 453.543,-306"/> <text text-anchor="middle" x="408.9419" y="-283.8" font-family="Times,serif" font-size="14.00" fill="#000000">BP 19&#45;23 Hz</text> </g> <!-- Beta2 --> <g id="node6" class="node"> <title>Beta2</title> <path fill="#c0c0c0" stroke="#000000" d="M543.0753,-306C543.0753,-306 501.2973,-306 501.2973,-306 495.2973,-306 489.2973,-300 489.2973,-294 489.2973,-294 489.2973,-282 489.2973,-282 489.2973,-276 495.2973,-270 501.2973,-270 501.2973,-270 543.0753,-270 543.0753,-270 549.0753,-270 555.0753,-276 555.0753,-282 555.0753,-282 555.0753,-294 555.0753,-294 555.0753,-300 549.0753,-306 543.0753,-306"/> <text text-anchor="middle" x="522.1863" y="-283.8" font-family="Times,serif" font-size="14.00" fill="#000000">Output 3</text> </g> <!-- BP1923HzEEGBeta2&#45;&gt;Beta2 --> <g id="edge3" class="edge"> <title>BP1923HzEEGBeta2&#45;&gt;Beta2</title> <path fill="none" stroke="#000000" d="M453.6991,-288C462.0453,-288 470.7516,-288 479.0479,-288"/> <polygon fill="#000000" stroke="#000000" points="479.2792,-291.5001 489.2792,-288 479.2792,-284.5001 479.2792,-291.5001"/> </g> <!-- EEGHeadSource --> <g id="node7" class="node"> <title>EEGHeadSource</title> <path fill="#00ff00" stroke="#000000" d="M82.2263,-144C82.2263,-144 11.9245,-144 11.9245,-144 5.9245,-144 -.0755,-138 -.0755,-132 -.0755,-132 -.0755,-120 -.0755,-120 -.0755,-114 5.9245,-108 11.9245,-108 11.9245,-108 82.2263,-108 82.2263,-108 88.2263,-108 94.2263,-114 94.2263,-120 94.2263,-120 94.2263,-132 94.2263,-132 94.2263,-138 88.2263,-144 82.2263,-144"/> <text text-anchor="middle" x="47.0754" y="-121.8" font-family="Times,serif" font-size="14.00" fill="#000000">Signal Source</text> </g> <!-- Decimator --> <g id="node8" class="node"> <title>Decimator</title> <polygon fill="none" stroke="#000000" points="206.4384,-198 131.2728,-198 131.2728,-162 206.4384,-162 206.4384,-198"/> <text text-anchor="middle" x="168.8556" y="-175.8" font-family="Times,serif" font-size="14.00" fill="#000000">Decimator</text> </g> <!-- EEGHeadSource&#45;&gt;Decimator --> <g id="edge4" class="edge"> <title>EEGHeadSource&#45;&gt;Decimator</title> <path fill="none" stroke="#000000" d="M87.9652,-144.1314C98.8698,-148.9668 110.7372,-154.229 121.9378,-159.1956"/> <polygon fill="#000000" stroke="#000000" points="120.5933,-162.4281 131.1537,-163.2821 123.4309,-156.029 120.5933,-162.4281"/> </g> <!-- BP500HzImpedance --> <g id="node9" class="node"> <title>BP500HzImpedance</title> <path fill="#c0c0c0" stroke="#000000" d="M195.7663,-144C195.7663,-144 141.9449,-144 141.9449,-144 135.9449,-144 129.9449,-138 129.9449,-132 129.9449,-132 129.9449,-120 129.9449,-120 129.9449,-114 135.9449,-108 141.9449,-108 141.9449,-108 195.7663,-108 195.7663,-108 201.7663,-108 207.7663,-114 207.7663,-120 207.7663,-120 207.7663,-132 207.7663,-132 207.7663,-138 201.7663,-144 195.7663,-144"/> <text text-anchor="middle" x="168.8556" y="-121.8" font-family="Times,serif" font-size="14.00" fill="#000000">Impedance</text> </g> <!-- EEGHeadSource&#45;&gt;BP500HzImpedance --> <g id="edge5" class="edge"> <title>EEGHeadSource&#45;&gt;BP500HzImpedance</title> <path fill="none" stroke="#000000" d="M94.1588,-126C102.5336,-126 111.2762,-126 119.7068,-126"/> <polygon fill="#000000" stroke="#000000" points="119.7897,-129.5001 129.7896,-126 119.7896,-122.5001 119.7897,-129.5001"/> </g> <!-- BP50500HzEMG --> <g id="node10" class="node"> <title>BP50500HzEMG</title> <path fill="#c0c0c0" stroke="#000000" d="M192.8374,-90C192.8374,-90 144.8738,-90 144.8738,-90 138.8738,-90 132.8738,-84 132.8738,-78 132.8738,-78 132.8738,-66 132.8738,-66 132.8738,-60 138.8738,-54 144.8738,-54 144.8738,-54 192.8374,-54 192.8374,-54 198.8374,-54 204.8374,-60 204.8374,-66 204.8374,-66 204.8374,-78 204.8374,-78 204.8374,-84 198.8374,-90 192.8374,-90"/> <text text-anchor="middle" x="168.8556" y="-67.8" font-family="Times,serif" font-size="14.00" fill="#000000">50&#45;500Hz</text> </g> <!-- EEGHeadSource&#45;&gt;BP50500HzEMG --> <g id="edge6" class="edge"> <title>EEGHeadSource&#45;&gt;BP50500HzEMG</title> <path fill="none" stroke="#000000" d="M87.9652,-107.8686C99.4151,-102.7915 111.9263,-97.2437 123.6126,-92.0617"/> <polygon fill="#000000" stroke="#000000" points="125.0492,-95.2535 132.772,-88.0003 122.2116,-88.8543 125.0492,-95.2535"/> </g> <!-- BS5060HzNotch --> <g id="node17" class="node"> <title>BS5060HzNotch</title> <polygon fill="none" stroke="#000000" points="328.3071,-225 243.6447,-225 243.6447,-189 328.3071,-189 328.3071,-225"/> <text text-anchor="middle" x="285.9759" y="-202.8" font-family="Times,serif" font-size="14.00" fill="#000000">BS 50/60Hz</text> </g> <!-- Decimator&#45;&gt;BS5060HzNotch --> <g id="edge10" class="edge"> <title>Decimator&#45;&gt;BS5060HzNotch</title> <path fill="none" stroke="#000000" d="M206.5579,-188.6916C215.201,-190.6841 224.5414,-192.8374 233.6762,-194.9432"/> <polygon fill="#000000" stroke="#000000" points="232.9344,-198.364 243.4651,-197.1999 234.5069,-191.5429 232.9344,-198.364"/> </g> <!-- BP50HzNoise --> <g id="node18" class="node"> <title>BP50HzNoise</title> <path fill="#c0c0c0" stroke="#000000" d="M307.4163,-171C307.4163,-171 264.5355,-171 264.5355,-171 258.5355,-171 252.5355,-165 252.5355,-159 252.5355,-159 252.5355,-147 252.5355,-147 252.5355,-141 258.5355,-135 264.5355,-135 264.5355,-135 307.4163,-135 307.4163,-135 313.4163,-135 319.4163,-141 319.4163,-147 319.4163,-147 319.4163,-159 319.4163,-159 319.4163,-165 313.4163,-171 307.4163,-171"/> <text text-anchor="middle" x="285.9759" y="-148.8" font-family="Times,serif" font-size="14.00" fill="#000000">BP 50Hz</text> </g> <!-- Decimator&#45;&gt;BP50HzNoise --> <g id="edge11" class="edge"> <title>Decimator&#45;&gt;BP50HzNoise</title> <path fill="none" stroke="#000000" d="M206.5579,-171.3084C217.9364,-168.6853 230.5235,-165.7836 242.259,-163.0781"/> <polygon fill="#000000" stroke="#000000" points="243.343,-166.4201 252.3011,-160.7631 241.7705,-159.599 243.343,-166.4201"/> </g> <!-- BP812HzEEGAlpha --> <g id="node11" class="node"> <title>BP812HzEEGAlpha</title> <polygon fill="none" stroke="#000000" points="450.043,-252 367.8408,-252 367.8408,-216 450.043,-216 450.043,-252"/> <text text-anchor="middle" x="408.9419" y="-229.8" font-family="Times,serif" font-size="14.00" fill="#000000">BP 8&#45;12 Hz</text> </g> <!-- Alpha --> <g id="node12" class="node"> <title>Alpha</title> <path fill="#c0c0c0" stroke="#000000" d="M543.0753,-252C543.0753,-252 501.2973,-252 501.2973,-252 495.2973,-252 489.2973,-246 489.2973,-240 489.2973,-240 489.2973,-228 489.2973,-228 489.2973,-222 495.2973,-216 501.2973,-216 501.2973,-216 543.0753,-216 543.0753,-216 549.0753,-216 555.0753,-222 555.0753,-228 555.0753,-228 555.0753,-240 555.0753,-240 555.0753,-246 549.0753,-252 543.0753,-252"/> <text text-anchor="middle" x="522.1863" y="-229.8" font-family="Times,serif" font-size="14.00" fill="#000000">Output 4</text> </g> <!-- BP812HzEEGAlpha&#45;&gt;Alpha --> <g id="edge7" class="edge"> <title>BP812HzEEGAlpha&#45;&gt;Alpha</title> <path fill="none" stroke="#000000" d="M450.1461,-234C459.6204,-234 469.7181,-234 479.2632,-234"/> <polygon fill="#000000" stroke="#000000" points="479.3482,-237.5001 489.3482,-234 479.3481,-230.5001 479.3482,-237.5001"/> </g> <!-- BP1215HzSMR --> <g id="node13" class="node"> <title>BP1215HzSMR</title> <polygon fill="none" stroke="#000000" points="453.543,-198 364.3408,-198 364.3408,-162 453.543,-162 453.543,-198"/> <text text-anchor="middle" x="408.9419" y="-175.8" font-family="Times,serif" font-size="14.00" fill="#000000">BP 12&#45;15 Hz</text> </g> <!-- SMR --> <g id="node14" class="node"> <title>SMR</title> <path fill="#c0c0c0" stroke="#000000" d="M543.0753,-198C543.0753,-198 501.2973,-198 501.2973,-198 495.2973,-198 489.2973,-192 489.2973,-186 489.2973,-186 489.2973,-174 489.2973,-174 489.2973,-168 495.2973,-162 501.2973,-162 501.2973,-162 543.0753,-162 543.0753,-162 549.0753,-162 555.0753,-168 555.0753,-174 555.0753,-174 555.0753,-186 555.0753,-186 555.0753,-192 549.0753,-198 543.0753,-198"/> <text text-anchor="middle" x="522.1863" y="-175.8" font-family="Times,serif" font-size="14.00" fill="#000000">Output 5</text> </g> <!-- BP1215HzSMR&#45;&gt;SMR --> <g id="edge8" class="edge"> <title>BP1215HzSMR&#45;&gt;SMR</title> <path fill="none" stroke="#000000" d="M453.6991,-180C462.0453,-180 470.7516,-180 479.0479,-180"/> <polygon fill="#000000" stroke="#000000" points="479.2792,-183.5001 489.2792,-180 479.2792,-176.5001 479.2792,-183.5001"/> </g> <!-- BP1519HzEEGBeta1 --> <g id="node15" class="node"> <title>BP1519HzEEGBeta1</title> <polygon fill="none" stroke="#000000" points="453.543,-144 364.3408,-144 364.3408,-108 453.543,-108 453.543,-144"/> <text text-anchor="middle" x="408.9419" y="-121.8" font-family="Times,serif" font-size="14.00" fill="#000000">BP 15&#45;19 Hz</text> </g> <!-- Beta1 --> <g id="node16" class="node"> <title>Beta1</title> <path fill="#c0c0c0" stroke="#000000" d="M543.0753,-144C543.0753,-144 501.2973,-144 501.2973,-144 495.2973,-144 489.2973,-138 489.2973,-132 489.2973,-132 489.2973,-120 489.2973,-120 489.2973,-114 495.2973,-108 501.2973,-108 501.2973,-108 543.0753,-108 543.0753,-108 549.0753,-108 555.0753,-114 555.0753,-120 555.0753,-120 555.0753,-132 555.0753,-132 555.0753,-138 549.0753,-144 543.0753,-144"/> <text text-anchor="middle" x="522.1863" y="-121.8" font-family="Times,serif" font-size="14.00" fill="#000000">Output 6</text> </g> <!-- BP1519HzEEGBeta1&#45;&gt;Beta1 --> <g id="edge9" class="edge"> <title>BP1519HzEEGBeta1&#45;&gt;Beta1</title> <path fill="none" stroke="#000000" d="M453.6991,-126C462.0453,-126 470.7516,-126 479.0479,-126"/> <polygon fill="#000000" stroke="#000000" points="479.2792,-129.5001 489.2792,-126 479.2792,-122.5001 479.2792,-129.5001"/> </g> <!-- BS5060HzNotch&#45;&gt;BP3442HzEEGGamma --> <g id="edge19" class="edge"> <title>BS5060HzNotch&#45;&gt;BP3442HzEEGGamma</title> <path fill="none" stroke="#000000" d="M291.0329,-225.2503C300.718,-257.4816 324.5365,-325.2085 364.3914,-369 365.1219,-369.8026 365.8818,-370.5894 366.6667,-371.3599"/> <polygon fill="#000000" stroke="#000000" points="364.4065,-374.0323 374.2896,-377.8501 368.9445,-368.7024 364.4065,-374.0323"/> </g> <!-- BS5060HzNotch&#45;&gt;BP2334HzEEGHiBeta --> <g id="edge18" class="edge"> <title>BS5060HzNotch&#45;&gt;BP2334HzEEGHiBeta</title> <path fill="none" stroke="#000000" d="M296.057,-225.1372C309.4526,-248.0784 334.8928,-287.8576 364.3914,-315 365.4729,-315.9951 366.5966,-316.9727 367.7528,-317.9309"/> <polygon fill="#000000" stroke="#000000" points="365.6585,-320.7352 375.752,-323.9558 369.8699,-315.1438 365.6585,-320.7352"/> </g> <!-- BS5060HzNotch&#45;&gt;BP1923HzEEGBeta2 --> <g id="edge17" class="edge"> <title>BS5060HzNotch&#45;&gt;BP1923HzEEGBeta2</title> <path fill="none" stroke="#000000" d="M311.5035,-225.1355C326.7137,-235.8011 346.4851,-249.4224 364.3914,-261 366.2426,-262.1969 368.1452,-263.4107 370.0726,-264.6273"/> <polygon fill="#000000" stroke="#000000" points="368.2603,-267.6219 378.5994,-269.9355 371.9597,-261.6793 368.2603,-267.6219"/> </g> <!-- BS5060HzNotch&#45;&gt;BP812HzEEGAlpha --> <g id="edge14" class="edge"> <title>BS5060HzNotch&#45;&gt;BP812HzEEGAlpha</title> <path fill="none" stroke="#000000" d="M328.6383,-216.3675C338.0082,-218.4249 348.0235,-220.624 357.6914,-222.7468"/> <polygon fill="#000000" stroke="#000000" points="357.0811,-226.1961 367.5991,-224.9222 358.5824,-219.359 357.0811,-226.1961"/> </g> <!-- BS5060HzNotch&#45;&gt;BP1215HzSMR --> <g id="edge15" class="edge"> <title>BS5060HzNotch&#45;&gt;BP1215HzSMR</title> <path fill="none" stroke="#000000" d="M328.6383,-197.6325C336.9146,-195.8152 345.6944,-193.8874 354.2936,-191.9993"/> <polygon fill="#000000" stroke="#000000" points="355.2477,-195.3732 364.2644,-189.81 353.7464,-188.5361 355.2477,-195.3732"/> </g> <!-- BS5060HzNotch&#45;&gt;BP1519HzEEGBeta1 --> <g id="edge16" class="edge"> <title>BS5060HzNotch&#45;&gt;BP1519HzEEGBeta1</title> <path fill="none" stroke="#000000" d="M314.9191,-188.9941C319.4659,-186.0458 324.0841,-182.9797 328.3914,-180 344.8393,-168.6217 347.8192,-164.1966 364.3914,-153 366.0213,-151.8988 367.6959,-150.7898 369.3957,-149.6823"/> <polygon fill="#000000" stroke="#000000" points="371.456,-152.5199 378.0159,-144.2001 367.6995,-146.6132 371.456,-152.5199"/> </g> <!-- BP14HzEEGDelta --> <g id="node19" class="node"> <title>BP14HzEEGDelta</title> <polygon fill="none" stroke="#000000" points="446.543,-90 371.3408,-90 371.3408,-54 446.543,-54 446.543,-90"/> <text text-anchor="middle" x="408.9419" y="-67.8" font-family="Times,serif" font-size="14.00" fill="#000000">BP 1&#45;4 Hz</text> </g> <!-- BS5060HzNotch&#45;&gt;BP14HzEEGDelta --> <g id="edge12" class="edge"> <title>BS5060HzNotch&#45;&gt;BP14HzEEGDelta</title> <path fill="none" stroke="#000000" d="M319.0613,-188.7789C322.4565,-186.1079 325.6568,-183.1746 328.3914,-180 354.1028,-150.1517 338.3531,-128.5636 364.3914,-99 365.0191,-98.2874 365.6702,-97.5878 366.3418,-96.9014"/> <polygon fill="#000000" stroke="#000000" points="368.9521,-99.2687 374.1852,-90.0565 364.3495,-93.9946 368.9521,-99.2687"/> </g> <!-- BP48HzEEGTheta --> <g id="node20" class="node"> <title>BP48HzEEGTheta</title> <polygon fill="none" stroke="#000000" points="446.543,-36 371.3408,-36 371.3408,0 446.543,0 446.543,-36"/> <text text-anchor="middle" x="408.9419" y="-13.8" font-family="Times,serif" font-size="14.00" fill="#000000">BP 4&#45;8 Hz</text> </g> <!-- BS5060HzNotch&#45;&gt;BP48HzEEGTheta --> <g id="edge13" class="edge"> <title>BS5060HzNotch&#45;&gt;BP48HzEEGTheta</title> <path fill="none" stroke="#000000" d="M319.9846,-188.8411C323.1287,-186.1861 326.0184,-183.2392 328.3914,-180 365.0889,-129.9071 327.1449,-94.686 364.3914,-45 364.7644,-44.5025 365.1494,-44.0122 365.5456,-43.5292"/> <polygon fill="#000000" stroke="#000000" points="368.1663,-45.8594 372.7979,-36.3306 363.2349,-40.8913 368.1663,-45.8594"/> </g> <!-- Delta --> <g id="node21" class="node"> <title>Delta</title> <path fill="#c0c0c0" stroke="#000000" d="M543.0753,-90C543.0753,-90 501.2973,-90 501.2973,-90 495.2973,-90 489.2973,-84 489.2973,-78 489.2973,-78 489.2973,-66 489.2973,-66 489.2973,-60 495.2973,-54 501.2973,-54 501.2973,-54 543.0753,-54 543.0753,-54 549.0753,-54 555.0753,-60 555.0753,-66 555.0753,-66 555.0753,-78 555.0753,-78 555.0753,-84 549.0753,-90 543.0753,-90"/> <text text-anchor="middle" x="522.1863" y="-67.8" font-family="Times,serif" font-size="14.00" fill="#000000">Output 7</text> </g> <!-- BP14HzEEGDelta&#45;&gt;Delta --> <g id="edge20" class="edge"> <title>BP14HzEEGDelta&#45;&gt;Delta</title> <path fill="none" stroke="#000000" d="M446.6506,-72C457.085,-72 468.4876,-72 479.1981,-72"/> <polygon fill="#000000" stroke="#000000" points="479.2007,-75.5001 489.2007,-72 479.2007,-68.5001 479.2007,-75.5001"/> </g> <!-- Theta --> <g id="node22" class="node"> <title>Theta</title> <path fill="#c0c0c0" stroke="#000000" d="M543.0753,-36C543.0753,-36 501.2973,-36 501.2973,-36 495.2973,-36 489.2973,-30 489.2973,-24 489.2973,-24 489.2973,-12 489.2973,-12 489.2973,-6 495.2973,0 501.2973,0 501.2973,0 543.0753,0 543.0753,0 549.0753,0 555.0753,-6 555.0753,-12 555.0753,-12 555.0753,-24 555.0753,-24 555.0753,-30 549.0753,-36 543.0753,-36"/> <text text-anchor="middle" x="522.1863" y="-13.8" font-family="Times,serif" font-size="14.00" fill="#000000">Output 8</text> </g> <!-- BP48HzEEGTheta&#45;&gt;Theta --> <g id="edge21" class="edge"> <title>BP48HzEEGTheta&#45;&gt;Theta</title> <path fill="none" stroke="#000000" d="M446.6506,-18C457.085,-18 468.4876,-18 479.1981,-18"/> <polygon fill="#000000" stroke="#000000" points="479.2007,-21.5001 489.2007,-18 479.2007,-14.5001 479.2007,-21.5001"/> </g> </g> </svg>